<?xml version="1.0" standalone="no"?>
<!DOCTYPE svg PUBLIC "-//W3C//DTD SVG 20010904//EN"
 "http://www.w3.org/TR/2001/REC-SVG-20010904/DTD/svg10.dtd">
<svg version="1.0" xmlns="http://www.w3.org/2000/svg"
 width="704.000000pt" height="704.000000pt" viewBox="0 0 704.000000 704.000000"
 preserveAspectRatio="xMidYMid meet">
<metadata>
Created by potrace 1.14, written by Peter Selinger 2001-2017
</metadata>
<g transform="translate(0.000000,704.000000) scale(0.100000,-0.100000)"
fill="#000000" stroke="none">
<path d="M320 3520 l0 -3520 3200 0 3200 0 -393 432 c-216 238 -748 825 -1182
1303 -434 479 -974 1072 -1198 1318 -225 247 -411 455 -413 462 -3 8 361 417
888 997 491 541 1202 1322 1578 1736 377 415 691 762 699 773 13 19 -39 19
-3183 19 l-3196 0 0 -3520z"/>
</g>
</svg>
