<?xml version="1.0" standalone="no"?>
<!DOCTYPE svg PUBLIC "-//W3C//DTD SVG 20010904//EN"
 "http://www.w3.org/TR/2001/REC-SVG-20010904/DTD/svg10.dtd">
<svg version="1.0" xmlns="http://www.w3.org/2000/svg"
 width="704.000000pt" height="704.000000pt" viewBox="0 0 704.000000 704.000000"
 preserveAspectRatio="xMidYMid meet">
<metadata>
Created by potrace 1.14, written by Peter Selinger 2001-2017
</metadata>
<g transform="translate(0.000000,704.000000) scale(0.100000,-0.100000)"
fill="#000000" stroke="none">
<path d="M320 3520 l0 -3520 3201 0 3200 0 -40 43 c-22 23 -48 51 -58 63 -21
25 -157 175 -193 214 -14 15 -59 64 -100 110 -103 115 -189 208 -227 247 -18
19 -33 36 -33 38 0 2 -10 15 -22 28 -25 25 -71 75 -163 178 -33 36 -98 107
-145 159 -47 51 -92 101 -100 110 -8 9 -53 59 -100 110 -107 117 -89 97 -200
220 -102 112 -153 169 -185 205 -38 42 -180 198 -215 235 -19 21 -48 53 -64
72 -16 18 -52 58 -80 88 -28 30 -87 95 -131 144 -44 48 -91 100 -105 115 -14
16 -57 63 -96 107 -40 43 -83 91 -95 105 -93 101 -199 217 -224 244 -16 18
-61 68 -100 111 -38 43 -81 89 -94 104 -12 14 -54 59 -91 100 -37 41 -81 89
-96 105 -16 17 -63 68 -104 114 -41 46 -87 96 -102 112 -16 15 -28 32 -28 39
0 6 20 32 44 58 66 70 171 185 271 296 11 13 61 67 111 122 112 123 190 209
229 253 17 18 44 48 60 66 17 17 68 74 115 125 47 51 96 105 109 119 12 14 53
59 90 100 36 41 79 88 95 105 15 16 60 66 100 110 39 43 86 95 105 115 18 20
57 63 87 97 30 33 73 81 96 106 24 25 68 74 100 109 31 35 69 78 85 94 15 17
64 71 108 119 44 49 94 103 110 121 17 18 62 67 100 110 39 43 84 93 100 111
29 31 128 141 170 188 11 12 61 67 110 121 50 54 110 120 135 148 25 27 59 64
75 82 17 18 55 61 87 96 31 35 74 82 95 105 21 22 70 76 108 119 39 42 81 90
95 105 14 15 59 64 100 110 41 46 81 89 88 97 11 11 -516 13 -3187 13 l-3201
0 0 -3520z"/>
</g>
</svg>
